<mxfile host="Electron" modified="2023-06-16T21:15:03.945Z" agent="Mozilla/5.0 (Macintosh; Intel Mac OS X 10_15_7) AppleWebKit/537.36 (KHTML, like Gecko) draw.io/21.4.0 Chrome/112.0.5615.204 Electron/24.5.1 Safari/537.36" etag="fLb57o9udOfhu_5kbnXi" version="21.4.0" type="device">
  <diagram id="Ht1M8jgEwFfnCIfOTk4-" name="Page-1">
    <mxGraphModel dx="1368" dy="991" grid="1" gridSize="10" guides="1" tooltips="1" connect="1" arrows="1" fold="1" page="1" pageScale="1" pageWidth="1600" pageHeight="900" background="#FFFFFF" math="0" shadow="0">
      <root>
        <mxCell id="0" />
        <mxCell id="1" parent="0" />
        <mxCell id="lNVfGLFAs1jdNbvyQik3-2" value="&lt;font style=&quot;font-size: 30px;&quot;&gt;Automation&lt;/font&gt;" style="points=[[0,0],[0.25,0],[0.5,0],[0.75,0],[1,0],[1,0.25],[1,0.5],[1,0.75],[1,1],[0.75,1],[0.5,1],[0.25,1],[0,1],[0,0.75],[0,0.5],[0,0.25]];outlineConnect=0;gradientColor=none;html=1;whiteSpace=wrap;fontSize=30;fontStyle=0;container=0;pointerEvents=0;collapsible=0;recursiveResize=0;shape=mxgraph.aws4.group;grIcon=mxgraph.aws4.group_aws_cloud;strokeColor=#232F3E;fillColor=none;verticalAlign=top;align=left;spacingLeft=30;fontColor=#000000;dashed=0;strokeWidth=2;" parent="1" vertex="1">
          <mxGeometry x="40" y="40" width="1240" height="840" as="geometry" />
        </mxCell>
        <mxCell id="lNVfGLFAs1jdNbvyQik3-12" value="" style="shape=crossbar;whiteSpace=wrap;html=1;rounded=1;fontSize=30;shadow=0;strokeWidth=4;strokeColor=#4D4D4D;fontColor=#000000;rotation=-90;" parent="1" vertex="1">
          <mxGeometry x="-40" y="320" width="360" height="30" as="geometry" />
        </mxCell>
        <mxCell id="lNVfGLFAs1jdNbvyQik3-79" value="" style="endArrow=classic;html=1;rounded=0;fontSize=30;strokeColor=#4D4D4D;strokeWidth=2;entryX=0;entryY=0.5;entryDx=0;entryDy=0;entryPerimeter=0;fontColor=#000000;exitX=0.88;exitY=0.522;exitDx=0;exitDy=0;exitPerimeter=0;" parent="1" target="lNVfGLFAs1jdNbvyQik3-105" edge="1">
          <mxGeometry width="50" height="50" relative="1" as="geometry">
            <mxPoint x="140.65999999999985" y="238.20000000000005" as="sourcePoint" />
            <mxPoint x="517.5792682926831" y="516" as="targetPoint" />
          </mxGeometry>
        </mxCell>
        <mxCell id="lNVfGLFAs1jdNbvyQik3-105" value="" style="sketch=0;points=[[0,0,0],[0.25,0,0],[0.5,0,0],[0.75,0,0],[1,0,0],[0,1,0],[0.25,1,0],[0.5,1,0],[0.75,1,0],[1,1,0],[0,0.25,0],[0,0.5,0],[0,0.75,0],[1,0.25,0],[1,0.5,0],[1,0.75,0]];outlineConnect=0;fontColor=#000000;gradientColor=#F78E04;gradientDirection=north;fillColor=#D05C17;strokeColor=#ffffff;dashed=0;verticalLabelPosition=bottom;verticalAlign=top;align=center;html=1;fontSize=30;fontStyle=0;aspect=fixed;shape=mxgraph.aws4.resourceIcon;resIcon=mxgraph.aws4.lambda;shadow=0;" parent="1" vertex="1">
          <mxGeometry x="280" y="200" width="80" height="80" as="geometry" />
        </mxCell>
        <mxCell id="lNVfGLFAs1jdNbvyQik3-106" value="" style="sketch=0;points=[[0,0,0],[0.25,0,0],[0.5,0,0],[0.75,0,0],[1,0,0],[0,1,0],[0.25,1,0],[0.5,1,0],[0.75,1,0],[1,1,0],[0,0.25,0],[0,0.5,0],[0,0.75,0],[1,0.25,0],[1,0.5,0],[1,0.75,0]];outlineConnect=0;fontColor=#000000;gradientColor=#F78E04;gradientDirection=north;fillColor=#D05C17;strokeColor=#ffffff;dashed=0;verticalLabelPosition=bottom;verticalAlign=top;align=center;html=1;fontSize=30;fontStyle=0;aspect=fixed;shape=mxgraph.aws4.resourceIcon;resIcon=mxgraph.aws4.lambda;shadow=0;" parent="1" vertex="1">
          <mxGeometry x="680" y="200" width="80" height="80" as="geometry" />
        </mxCell>
        <mxCell id="lNVfGLFAs1jdNbvyQik3-113" value="" style="html=1;verticalLabelPosition=bottom;align=center;labelBackgroundColor=#ffffff;verticalAlign=top;strokeWidth=3;strokeColor=#0080F0;shadow=0;dashed=0;shape=mxgraph.ios7.icons.alarm_clock;fontSize=30;fillColor=none;fontColor=#000000;" parent="1" vertex="1">
          <mxGeometry x="620" y="260" width="40" height="40" as="geometry" />
        </mxCell>
        <mxCell id="lNVfGLFAs1jdNbvyQik3-3" value="" style="sketch=0;points=[[0,0,0],[0.25,0,0],[0.5,0,0],[0.75,0,0],[1,0,0],[0,1,0],[0.25,1,0],[0.5,1,0],[0.75,1,0],[1,1,0],[0,0.25,0],[0,0.5,0],[0,0.75,0],[1,0.25,0],[1,0.5,0],[1,0.75,0]];outlineConnect=0;fontColor=#000000;gradientColor=#FF4F8B;gradientDirection=north;fillColor=#BC1356;strokeColor=#ffffff;dashed=0;verticalLabelPosition=bottom;verticalAlign=top;align=center;html=1;fontSize=30;fontStyle=0;aspect=fixed;shape=mxgraph.aws4.resourceIcon;resIcon=mxgraph.aws4.eventbridge;" parent="1" vertex="1">
          <mxGeometry x="80.00000000000001" y="560" width="120" height="120" as="geometry" />
        </mxCell>
        <mxCell id="lNVfGLFAs1jdNbvyQik3-41" value="&lt;font style=&quot;font-size: 30px;&quot;&gt;EventBridge&lt;/font&gt;" style="text;html=1;resizable=0;points=[];autosize=1;align=center;verticalAlign=top;spacingTop=-4;fontSize=30;fontStyle=0;fontColor=#000000;" parent="1" vertex="1">
          <mxGeometry x="60.000000000000014" y="520" width="180" height="40" as="geometry" />
        </mxCell>
        <mxCell id="jZqfp6MoiFv1Xp_olDQf-8" value="" style="endArrow=classic;html=1;rounded=0;fontSize=30;strokeColor=#4D4D4D;strokeWidth=2;fontColor=#000000;exitX=1;exitY=0.5;exitDx=0;exitDy=0;exitPerimeter=0;" parent="1" source="lNVfGLFAs1jdNbvyQik3-105" target="jZqfp6MoiFv1Xp_olDQf-19" edge="1">
          <mxGeometry width="50" height="50" relative="1" as="geometry">
            <mxPoint x="606" y="400" as="sourcePoint" />
            <mxPoint x="598" y="398" as="targetPoint" />
          </mxGeometry>
        </mxCell>
        <mxCell id="jZqfp6MoiFv1Xp_olDQf-9" value="" style="endArrow=classic;html=1;rounded=0;fontSize=30;strokeColor=#4D4D4D;strokeWidth=2;exitX=1;exitY=0.5;exitDx=0;exitDy=0;exitPerimeter=0;fontColor=#000000;entryX=0;entryY=0.5;entryDx=0;entryDy=0;entryPerimeter=0;" parent="1" source="lNVfGLFAs1jdNbvyQik3-106" target="jZqfp6MoiFv1Xp_olDQf-20" edge="1">
          <mxGeometry width="50" height="50" relative="1" as="geometry">
            <mxPoint x="927.56" y="667.99" as="sourcePoint" />
            <mxPoint x="919" y="240" as="targetPoint" />
          </mxGeometry>
        </mxCell>
        <mxCell id="jZqfp6MoiFv1Xp_olDQf-11" value="Shadows" style="text;html=1;resizable=0;points=[];autosize=1;align=center;verticalAlign=top;spacingTop=-4;fontSize=30;fontStyle=0;fontColor=#000000;" parent="1" vertex="1">
          <mxGeometry x="445" y="160" width="150" height="40" as="geometry" />
        </mxCell>
        <mxCell id="jZqfp6MoiFv1Xp_olDQf-16" value="" style="edgeStyle=segmentEdgeStyle;endArrow=classic;html=1;curved=0;rounded=0;endSize=8;startSize=8;fontColor=#FFFFFF;strokeWidth=3;dashed=1;" parent="1" source="jZqfp6MoiFv1Xp_olDQf-31" target="jZqfp6MoiFv1Xp_olDQf-34" edge="1">
          <mxGeometry width="50" height="50" relative="1" as="geometry">
            <mxPoint x="1040.98" y="237" as="sourcePoint" />
            <mxPoint x="943.7800000000002" y="100" as="targetPoint" />
            <Array as="points" />
          </mxGeometry>
        </mxCell>
        <mxCell id="jZqfp6MoiFv1Xp_olDQf-19" value="" style="sketch=0;points=[[0,0,0],[0.25,0,0],[0.5,0,0],[0.75,0,0],[1,0,0],[0,1,0],[0.25,1,0],[0.5,1,0],[0.75,1,0],[1,1,0],[0,0.25,0],[0,0.5,0],[0,0.75,0],[1,0.25,0],[1,0.5,0],[1,0.75,0]];outlineConnect=0;fontColor=#232F3E;gradientColor=#4D72F3;gradientDirection=north;fillColor=#3334B9;strokeColor=#ffffff;dashed=0;verticalLabelPosition=bottom;verticalAlign=top;align=center;html=1;fontSize=12;fontStyle=0;aspect=fixed;shape=mxgraph.aws4.resourceIcon;resIcon=mxgraph.aws4.dynamodb;" parent="1" vertex="1">
          <mxGeometry x="480" y="200" width="80" height="80" as="geometry" />
        </mxCell>
        <mxCell id="jZqfp6MoiFv1Xp_olDQf-20" value="" style="sketch=0;points=[[0,0,0],[0.25,0,0],[0.5,0,0],[0.75,0,0],[1,0,0],[0,1,0],[0.25,1,0],[0.5,1,0],[0.75,1,0],[1,1,0],[0,0.25,0],[0,0.5,0],[0,0.75,0],[1,0.25,0],[1,0.5,0],[1,0.75,0]];outlineConnect=0;fontColor=#232F3E;gradientColor=#60A337;gradientDirection=north;fillColor=#277116;strokeColor=#ffffff;dashed=0;verticalLabelPosition=bottom;verticalAlign=top;align=center;html=1;fontSize=12;fontStyle=0;aspect=fixed;shape=mxgraph.aws4.resourceIcon;resIcon=mxgraph.aws4.s3;" parent="1" vertex="1">
          <mxGeometry x="880" y="200" width="80" height="80" as="geometry" />
        </mxCell>
        <mxCell id="jZqfp6MoiFv1Xp_olDQf-21" value="Inventories" style="text;html=1;resizable=0;points=[];autosize=1;align=center;verticalAlign=top;spacingTop=-4;fontSize=30;fontStyle=0;fontColor=#000000;" parent="1" vertex="1">
          <mxGeometry x="835" y="160" width="170" height="40" as="geometry" />
        </mxCell>
        <mxCell id="jZqfp6MoiFv1Xp_olDQf-22" value="" style="endArrow=classic;html=1;rounded=0;fontSize=30;strokeColor=#4D4D4D;strokeWidth=2;fontColor=#000000;entryX=0;entryY=0.5;entryDx=0;entryDy=0;entryPerimeter=0;" parent="1" source="jZqfp6MoiFv1Xp_olDQf-19" target="lNVfGLFAs1jdNbvyQik3-106" edge="1">
          <mxGeometry width="50" height="50" relative="1" as="geometry">
            <mxPoint x="609" y="410" as="sourcePoint" />
            <mxPoint x="609" y="330" as="targetPoint" />
          </mxGeometry>
        </mxCell>
        <mxCell id="jZqfp6MoiFv1Xp_olDQf-23" value="" style="endArrow=classic;html=1;rounded=0;fontSize=30;strokeColor=#4D4D4D;strokeWidth=2;entryX=0;entryY=0.5;entryDx=0;entryDy=0;entryPerimeter=0;fontColor=#000000;exitX=0.431;exitY=0.433;exitDx=0;exitDy=0;exitPerimeter=0;" parent="1" target="jZqfp6MoiFv1Xp_olDQf-24" edge="1">
          <mxGeometry width="50" height="50" relative="1" as="geometry">
            <mxPoint x="137.99" y="439.84000000000015" as="sourcePoint" />
            <mxPoint x="997.5792682926831" y="556" as="targetPoint" />
          </mxGeometry>
        </mxCell>
        <mxCell id="jZqfp6MoiFv1Xp_olDQf-24" value="" style="sketch=0;points=[[0,0,0],[0.25,0,0],[0.5,0,0],[0.75,0,0],[1,0,0],[0,1,0],[0.25,1,0],[0.5,1,0],[0.75,1,0],[1,1,0],[0,0.25,0],[0,0.5,0],[0,0.75,0],[1,0.25,0],[1,0.5,0],[1,0.75,0]];outlineConnect=0;fontColor=#000000;gradientColor=#F78E04;gradientDirection=north;fillColor=#D05C17;strokeColor=#ffffff;dashed=0;verticalLabelPosition=bottom;verticalAlign=top;align=center;html=1;fontSize=30;fontStyle=0;aspect=fixed;shape=mxgraph.aws4.resourceIcon;resIcon=mxgraph.aws4.lambda;shadow=0;" parent="1" vertex="1">
          <mxGeometry x="280" y="400" width="80" height="80" as="geometry" />
        </mxCell>
        <mxCell id="jZqfp6MoiFv1Xp_olDQf-25" value="" style="sketch=0;points=[[0,0,0],[0.25,0,0],[0.5,0,0],[0.75,0,0],[1,0,0],[0,1,0],[0.25,1,0],[0.5,1,0],[0.75,1,0],[1,1,0],[0,0.25,0],[0,0.5,0],[0,0.75,0],[1,0.25,0],[1,0.5,0],[1,0.75,0]];outlineConnect=0;fontColor=#000000;gradientColor=#F78E04;gradientDirection=north;fillColor=#D05C17;strokeColor=#ffffff;dashed=0;verticalLabelPosition=bottom;verticalAlign=top;align=center;html=1;fontSize=30;fontStyle=0;aspect=fixed;shape=mxgraph.aws4.resourceIcon;resIcon=mxgraph.aws4.lambda;shadow=0;" parent="1" vertex="1">
          <mxGeometry x="680" y="400" width="80" height="80" as="geometry" />
        </mxCell>
        <mxCell id="jZqfp6MoiFv1Xp_olDQf-26" value="" style="html=1;verticalLabelPosition=bottom;align=center;labelBackgroundColor=#ffffff;verticalAlign=top;strokeWidth=3;strokeColor=#0080F0;shadow=0;dashed=0;shape=mxgraph.ios7.icons.alarm_clock;fontSize=30;fillColor=none;fontColor=#000000;aspect=fixed;" parent="1" vertex="1">
          <mxGeometry x="620" y="460" width="40" height="40" as="geometry" />
        </mxCell>
        <mxCell id="jZqfp6MoiFv1Xp_olDQf-27" value="" style="endArrow=classic;html=1;rounded=0;fontSize=30;strokeColor=#4D4D4D;strokeWidth=2;fontColor=#000000;exitX=1;exitY=0.5;exitDx=0;exitDy=0;exitPerimeter=0;" parent="1" source="jZqfp6MoiFv1Xp_olDQf-24" target="jZqfp6MoiFv1Xp_olDQf-30" edge="1">
          <mxGeometry width="50" height="50" relative="1" as="geometry">
            <mxPoint x="1086" y="440" as="sourcePoint" />
            <mxPoint x="1078" y="438" as="targetPoint" />
          </mxGeometry>
        </mxCell>
        <mxCell id="jZqfp6MoiFv1Xp_olDQf-28" value="" style="endArrow=classic;html=1;rounded=0;fontSize=30;strokeColor=#4D4D4D;strokeWidth=2;exitX=1;exitY=0.5;exitDx=0;exitDy=0;exitPerimeter=0;fontColor=#000000;entryX=0;entryY=0.5;entryDx=0;entryDy=0;entryPerimeter=0;" parent="1" source="jZqfp6MoiFv1Xp_olDQf-25" target="jZqfp6MoiFv1Xp_olDQf-31" edge="1">
          <mxGeometry width="50" height="50" relative="1" as="geometry">
            <mxPoint x="1407.56" y="707.99" as="sourcePoint" />
            <mxPoint x="1399" y="280" as="targetPoint" />
          </mxGeometry>
        </mxCell>
        <mxCell id="jZqfp6MoiFv1Xp_olDQf-29" value="Records" style="text;html=1;resizable=0;points=[];autosize=1;align=center;verticalAlign=top;spacingTop=-4;fontSize=30;fontStyle=0;fontColor=#000000;" parent="1" vertex="1">
          <mxGeometry x="450" y="360" width="140" height="40" as="geometry" />
        </mxCell>
        <mxCell id="jZqfp6MoiFv1Xp_olDQf-30" value="" style="sketch=0;points=[[0,0,0],[0.25,0,0],[0.5,0,0],[0.75,0,0],[1,0,0],[0,1,0],[0.25,1,0],[0.5,1,0],[0.75,1,0],[1,1,0],[0,0.25,0],[0,0.5,0],[0,0.75,0],[1,0.25,0],[1,0.5,0],[1,0.75,0]];outlineConnect=0;fontColor=#232F3E;gradientColor=#4D72F3;gradientDirection=north;fillColor=#3334B9;strokeColor=#ffffff;dashed=0;verticalLabelPosition=bottom;verticalAlign=top;align=center;html=1;fontSize=12;fontStyle=0;aspect=fixed;shape=mxgraph.aws4.resourceIcon;resIcon=mxgraph.aws4.dynamodb;" parent="1" vertex="1">
          <mxGeometry x="480" y="400" width="80" height="80" as="geometry" />
        </mxCell>
        <mxCell id="jZqfp6MoiFv1Xp_olDQf-32" value="Activities" style="text;html=1;resizable=0;points=[];autosize=1;align=center;verticalAlign=top;spacingTop=-4;fontSize=30;fontStyle=0;fontColor=#000000;" parent="1" vertex="1">
          <mxGeometry x="850" y="360" width="140" height="40" as="geometry" />
        </mxCell>
        <mxCell id="jZqfp6MoiFv1Xp_olDQf-33" value="" style="endArrow=classic;html=1;rounded=0;fontSize=30;strokeColor=#4D4D4D;strokeWidth=2;exitX=1;exitY=0.5;exitDx=0;exitDy=0;exitPerimeter=0;fontColor=#000000;entryX=0;entryY=0.5;entryDx=0;entryDy=0;entryPerimeter=0;" parent="1" source="jZqfp6MoiFv1Xp_olDQf-30" target="jZqfp6MoiFv1Xp_olDQf-25" edge="1">
          <mxGeometry width="50" height="50" relative="1" as="geometry">
            <mxPoint x="1089" y="450" as="sourcePoint" />
            <mxPoint x="1089" y="370" as="targetPoint" />
          </mxGeometry>
        </mxCell>
        <mxCell id="jZqfp6MoiFv1Xp_olDQf-34" value="" style="sketch=0;outlineConnect=0;fontColor=#000000;gradientColor=none;fillColor=#B0084D;strokeColor=none;dashed=0;verticalLabelPosition=bottom;verticalAlign=top;align=center;html=1;fontSize=30;fontStyle=0;pointerEvents=1;shape=mxgraph.aws4.organizations_management_account;" parent="1" vertex="1">
          <mxGeometry x="1420" y="380" width="120" height="120" as="geometry" />
        </mxCell>
        <mxCell id="jZqfp6MoiFv1Xp_olDQf-36" value="Accounting" style="text;html=1;resizable=0;points=[];autosize=1;align=center;verticalAlign=top;spacingTop=-4;fontSize=30;fontStyle=0;fontColor=#000000;" parent="1" vertex="1">
          <mxGeometry x="1395" y="500" width="170" height="40" as="geometry" />
        </mxCell>
        <mxCell id="jZqfp6MoiFv1Xp_olDQf-38" value="Metering" style="text;html=1;resizable=0;points=[];autosize=1;align=center;verticalAlign=top;spacingTop=-4;fontSize=30;fontStyle=0;fontColor=#000000;" parent="1" vertex="1">
          <mxGeometry x="250" y="360" width="140" height="40" as="geometry" />
        </mxCell>
        <mxCell id="jZqfp6MoiFv1Xp_olDQf-39" value="Storing" style="text;html=1;resizable=0;points=[];autosize=1;align=center;verticalAlign=top;spacingTop=-4;fontSize=30;fontStyle=0;fontColor=#000000;" parent="1" vertex="1">
          <mxGeometry x="260" y="160" width="120" height="40" as="geometry" />
        </mxCell>
        <mxCell id="si3JcD4rtta3ya5N-G4n-2" value="" style="sketch=0;points=[[0,0,0],[0.25,0,0],[0.5,0,0],[0.75,0,0],[1,0,0],[0,1,0],[0.25,1,0],[0.5,1,0],[0.75,1,0],[1,1,0],[0,0.25,0],[0,0.5,0],[0,0.75,0],[1,0.25,0],[1,0.5,0],[1,0.75,0]];outlineConnect=0;fontColor=#232F3E;gradientColor=#60A337;gradientDirection=north;fillColor=#277116;strokeColor=#ffffff;dashed=0;verticalLabelPosition=bottom;verticalAlign=top;align=center;html=1;fontSize=12;fontStyle=0;aspect=fixed;shape=mxgraph.aws4.resourceIcon;resIcon=mxgraph.aws4.s3;" parent="1" vertex="1">
          <mxGeometry x="880" y="720" width="80" height="80" as="geometry" />
        </mxCell>
        <mxCell id="si3JcD4rtta3ya5N-G4n-3" value="Costs" style="text;html=1;resizable=0;points=[];autosize=1;align=center;verticalAlign=top;spacingTop=-4;fontSize=30;fontStyle=0;fontColor=#000000;" parent="1" vertex="1">
          <mxGeometry x="870" y="680" width="100" height="40" as="geometry" />
        </mxCell>
        <mxCell id="si3JcD4rtta3ya5N-G4n-4" value="" style="sketch=0;points=[[0,0,0],[0.25,0,0],[0.5,0,0],[0.75,0,0],[1,0,0],[0,1,0],[0.25,1,0],[0.5,1,0],[0.75,1,0],[1,1,0],[0,0.25,0],[0,0.5,0],[0,0.75,0],[1,0.25,0],[1,0.5,0],[1,0.75,0]];outlineConnect=0;fontColor=#000000;gradientColor=#F78E04;gradientDirection=north;fillColor=#D05C17;strokeColor=#ffffff;dashed=0;verticalLabelPosition=bottom;verticalAlign=top;align=center;html=1;fontSize=30;fontStyle=0;aspect=fixed;shape=mxgraph.aws4.resourceIcon;resIcon=mxgraph.aws4.lambda;shadow=0;" parent="1" vertex="1">
          <mxGeometry x="680" y="720" width="80" height="80" as="geometry" />
        </mxCell>
        <mxCell id="si3JcD4rtta3ya5N-G4n-5" value="" style="html=1;verticalLabelPosition=bottom;align=center;labelBackgroundColor=#ffffff;verticalAlign=top;strokeWidth=3;strokeColor=#0080F0;shadow=0;dashed=0;shape=mxgraph.ios7.icons.alarm_clock;fontSize=30;fillColor=none;fontColor=#000000;aspect=fixed;" parent="1" vertex="1">
          <mxGeometry x="620" y="780" width="40" height="40" as="geometry" />
        </mxCell>
        <mxCell id="si3JcD4rtta3ya5N-G4n-6" value="Extracting" style="text;html=1;resizable=0;points=[];autosize=1;align=center;verticalAlign=top;spacingTop=-4;fontSize=30;fontStyle=0;fontColor=#000000;" parent="1" vertex="1">
          <mxGeometry x="634" y="680" width="160" height="40" as="geometry" />
        </mxCell>
        <mxCell id="si3JcD4rtta3ya5N-G4n-7" value="" style="sketch=0;points=[[0,0,0],[0.25,0,0],[0.5,0,0],[0.75,0,0],[1,0,0],[0,1,0],[0.25,1,0],[0.5,1,0],[0.75,1,0],[1,1,0],[0,0.25,0],[0,0.5,0],[0,0.75,0],[1,0.25,0],[1,0.5,0],[1,0.75,0]];outlineConnect=0;fontColor=#232F3E;gradientColor=#60A337;gradientDirection=north;fillColor=#277116;strokeColor=#ffffff;dashed=0;verticalLabelPosition=bottom;verticalAlign=top;align=center;html=1;fontSize=12;fontStyle=0;aspect=fixed;shape=mxgraph.aws4.resourceIcon;resIcon=mxgraph.aws4.cost_explorer;" parent="1" vertex="1">
          <mxGeometry x="360" y="700" width="120" height="120" as="geometry" />
        </mxCell>
        <mxCell id="si3JcD4rtta3ya5N-G4n-8" value="Cost Explorer" style="text;html=1;resizable=0;points=[];autosize=1;align=center;verticalAlign=top;spacingTop=-4;fontSize=30;fontStyle=0;fontColor=#000000;" parent="1" vertex="1">
          <mxGeometry x="315" y="660" width="210" height="40" as="geometry" />
        </mxCell>
        <mxCell id="si3JcD4rtta3ya5N-G4n-10" value="" style="edgeStyle=segmentEdgeStyle;endArrow=classic;html=1;curved=0;rounded=0;endSize=8;startSize=8;fontColor=#FFFFFF;strokeWidth=3;dashed=1;exitX=1;exitY=0.5;exitDx=0;exitDy=0;exitPerimeter=0;" parent="1" source="1F7NJxXTms6XoKkwtTkC-1" edge="1" target="jZqfp6MoiFv1Xp_olDQf-36">
          <mxGeometry width="50" height="50" relative="1" as="geometry">
            <mxPoint x="1129" y="289" as="sourcePoint" />
            <mxPoint x="1470" y="670" as="targetPoint" />
            <Array as="points">
              <mxPoint x="1480" y="760" />
            </Array>
          </mxGeometry>
        </mxCell>
        <mxCell id="si3JcD4rtta3ya5N-G4n-11" value="" style="endArrow=classic;html=1;rounded=0;fontSize=30;strokeColor=#4D4D4D;strokeWidth=2;fontColor=#000000;entryX=0;entryY=0.5;entryDx=0;entryDy=0;entryPerimeter=0;" parent="1" source="si3JcD4rtta3ya5N-G4n-4" target="si3JcD4rtta3ya5N-G4n-2" edge="1">
          <mxGeometry width="50" height="50" relative="1" as="geometry">
            <mxPoint x="930.4000000000001" y="488.31999999999994" as="sourcePoint" />
            <mxPoint x="929" y="410" as="targetPoint" />
          </mxGeometry>
        </mxCell>
        <mxCell id="si3JcD4rtta3ya5N-G4n-12" value="" style="endArrow=classic;html=1;rounded=0;fontSize=30;strokeColor=#4D4D4D;strokeWidth=2;exitX=1;exitY=0.5;exitDx=0;exitDy=0;exitPerimeter=0;fontColor=#000000;entryX=0;entryY=0.5;entryDx=0;entryDy=0;entryPerimeter=0;" parent="1" source="si3JcD4rtta3ya5N-G4n-7" edge="1" target="si3JcD4rtta3ya5N-G4n-4">
          <mxGeometry width="50" height="50" relative="1" as="geometry">
            <mxPoint x="1331.0500000000002" y="487" as="sourcePoint" />
            <mxPoint x="1320" y="600" as="targetPoint" />
          </mxGeometry>
        </mxCell>
        <mxCell id="1F7NJxXTms6XoKkwtTkC-1" value="" style="sketch=0;points=[[0,0,0],[0.25,0,0],[0.5,0,0],[0.75,0,0],[1,0,0],[0,1,0],[0.25,1,0],[0.5,1,0],[0.75,1,0],[1,1,0],[0,0.25,0],[0,0.5,0],[0,0.75,0],[1,0.25,0],[1,0.5,0],[1,0.75,0]];outlineConnect=0;fontColor=#232F3E;gradientColor=#FF5252;gradientDirection=north;fillColor=#C7131F;strokeColor=#ffffff;dashed=0;verticalLabelPosition=bottom;verticalAlign=top;align=center;html=1;fontSize=12;fontStyle=0;aspect=fixed;shape=mxgraph.aws4.resourceIcon;resIcon=mxgraph.aws4.simple_email_service;" vertex="1" parent="1">
          <mxGeometry x="1080" y="720" width="80" height="80" as="geometry" />
        </mxCell>
        <mxCell id="1F7NJxXTms6XoKkwtTkC-2" value="" style="endArrow=classic;html=1;rounded=0;fontSize=30;strokeColor=#4D4D4D;strokeWidth=2;fontColor=#000000;entryX=0;entryY=0.5;entryDx=0;entryDy=0;entryPerimeter=0;" edge="1" parent="1" source="si3JcD4rtta3ya5N-G4n-2" target="1F7NJxXTms6XoKkwtTkC-1">
          <mxGeometry width="50" height="50" relative="1" as="geometry">
            <mxPoint x="1010" y="760" as="sourcePoint" />
            <mxPoint x="930" y="770" as="targetPoint" />
          </mxGeometry>
        </mxCell>
        <mxCell id="1F7NJxXTms6XoKkwtTkC-3" value="" style="edgeStyle=segmentEdgeStyle;endArrow=classic;html=1;curved=0;rounded=0;endSize=8;startSize=8;fontColor=#FFFFFF;strokeWidth=3;dashed=1;exitX=1;exitY=0.5;exitDx=0;exitDy=0;exitPerimeter=0;" edge="1" parent="1" source="jZqfp6MoiFv1Xp_olDQf-20" target="jZqfp6MoiFv1Xp_olDQf-34">
          <mxGeometry width="50" height="50" relative="1" as="geometry">
            <mxPoint x="753" y="281" as="sourcePoint" />
            <mxPoint x="1420" y="520" as="targetPoint" />
            <Array as="points">
              <mxPoint x="1480" y="240" />
            </Array>
          </mxGeometry>
        </mxCell>
        <mxCell id="jZqfp6MoiFv1Xp_olDQf-31" value="" style="sketch=0;points=[[0,0,0],[0.25,0,0],[0.5,0,0],[0.75,0,0],[1,0,0],[0,1,0],[0.25,1,0],[0.5,1,0],[0.75,1,0],[1,1,0],[0,0.25,0],[0,0.5,0],[0,0.75,0],[1,0.25,0],[1,0.5,0],[1,0.75,0]];outlineConnect=0;fontColor=#232F3E;gradientColor=#60A337;gradientDirection=north;fillColor=#277116;strokeColor=#ffffff;dashed=0;verticalLabelPosition=bottom;verticalAlign=top;align=center;html=1;fontSize=12;fontStyle=0;aspect=fixed;shape=mxgraph.aws4.resourceIcon;resIcon=mxgraph.aws4.s3;" parent="1" vertex="1">
          <mxGeometry x="880" y="400" width="80" height="80" as="geometry" />
        </mxCell>
        <mxCell id="1F7NJxXTms6XoKkwtTkC-4" value="Email" style="text;html=1;resizable=0;points=[];autosize=1;align=center;verticalAlign=top;spacingTop=-4;fontSize=30;fontStyle=0;fontColor=#000000;" vertex="1" parent="1">
          <mxGeometry x="1070" y="680" width="100" height="40" as="geometry" />
        </mxCell>
        <mxCell id="1F7NJxXTms6XoKkwtTkC-5" value="Reporting" style="text;html=1;resizable=0;points=[];autosize=1;align=center;verticalAlign=top;spacingTop=-4;fontSize=30;fontStyle=0;fontColor=#000000;" vertex="1" parent="1">
          <mxGeometry x="645" y="360" width="150" height="40" as="geometry" />
        </mxCell>
        <mxCell id="1F7NJxXTms6XoKkwtTkC-6" value="Reporting" style="text;html=1;resizable=0;points=[];autosize=1;align=center;verticalAlign=top;spacingTop=-4;fontSize=30;fontStyle=0;fontColor=#000000;" vertex="1" parent="1">
          <mxGeometry x="645" y="160" width="150" height="40" as="geometry" />
        </mxCell>
      </root>
    </mxGraphModel>
  </diagram>
</mxfile>
